<?xml version="1.0" encoding="UTF-8" standalone="no"?>
<!-- Created with Inkscape (http://www.inkscape.org/) -->

<svg
   width="480"
   height="320"
   viewBox="0 0 126.99999 84.666669"
   version="1.1"
   id="svg5"
   xml:space="preserve"
   inkscape:version="1.2.1 (9c6d41e410, 2022-07-14)"
   sodipodi:docname="logo_edna_gonzales.svg"
   xmlns:inkscape="http://www.inkscape.org/namespaces/inkscape"
   xmlns:sodipodi="http://sodipodi.sourceforge.net/DTD/sodipodi-0.dtd"
   xmlns:xlink="http://www.w3.org/1999/xlink"
   xmlns="http://www.w3.org/2000/svg"
   xmlns:svg="http://www.w3.org/2000/svg"><sodipodi:namedview
     id="namedview7"
     pagecolor="#ffffff"
     bordercolor="#000000"
     borderopacity="0.25"
     inkscape:showpageshadow="2"
     inkscape:pageopacity="0.0"
     inkscape:pagecheckerboard="0"
     inkscape:deskcolor="#d1d1d1"
     inkscape:document-units="px"
     showgrid="false"
     inkscape:zoom="0.5"
     inkscape:cx="515"
     inkscape:cy="296"
     inkscape:window-width="1366"
     inkscape:window-height="705"
     inkscape:window-x="-8"
     inkscape:window-y="-8"
     inkscape:window-maximized="1"
     inkscape:current-layer="layer1" /><defs
     id="defs2"><linearGradient
       inkscape:collect="always"
       id="linearGradient6305"><stop
         style="stop-color:#008000;stop-opacity:1;"
         offset="0"
         id="stop6301" /><stop
         style="stop-color:#00da00;stop-opacity:1;"
         offset="1"
         id="stop6303" /></linearGradient><linearGradient
       inkscape:collect="always"
       id="linearGradient6021"><stop
         style="stop-color:#008000;stop-opacity:1;"
         offset="0"
         id="stop6017" /><stop
         style="stop-color:#00da00;stop-opacity:1;"
         offset="1"
         id="stop6019" /></linearGradient><linearGradient
       inkscape:collect="always"
       id="linearGradient6013"><stop
         style="stop-color:#008000;stop-opacity:1;"
         offset="0"
         id="stop6009" /><stop
         style="stop-color:#00da00;stop-opacity:1;"
         offset="1"
         id="stop6011" /></linearGradient><inkscape:path-effect
       effect="bend_path"
       id="path-effect5984"
       is_visible="true"
       lpeversion="1"
       bendpath="M 38.776108,41.351964 C 52.276273,27.599099 75.099571,29.602678 91.306609,39.592619"
       prop_scale="1"
       scale_y_rel="false"
       vertical="false"
       hide_knot="false"
       bendpath-nodetypes="cc" /><inkscape:path-effect
       effect="bend_path"
       id="path-effect5980"
       is_visible="true"
       lpeversion="1"
       bendpath="m 50.159212,92.882187 c 9.675418,7.680633 21.487972,7.753063 35.573019,-0.264583"
       prop_scale="1"
       scale_y_rel="false"
       vertical="false"
       hide_knot="false"
       bendpath-nodetypes="cc" /><inkscape:path-effect
       effect="bend_path"
       id="path-effect4897"
       is_visible="true"
       lpeversion="1"
       bendpath="M 38.776108,41.351964 C 52.276273,27.599099 75.099571,29.602678 91.306609,39.592619"
       prop_scale="1"
       scale_y_rel="false"
       vertical="false"
       hide_knot="false"
       bendpath-nodetypes="cc" /><inkscape:path-effect
       effect="bend_path"
       id="path-effect4862"
       is_visible="true"
       lpeversion="1"
       bendpath="m 50.159212,92.882187 c 9.675418,7.680633 21.487972,7.753063 35.573019,-0.264583"
       prop_scale="1"
       scale_y_rel="false"
       vertical="false"
       hide_knot="false"
       bendpath-nodetypes="cc" /><linearGradient
       inkscape:collect="always"
       xlink:href="#linearGradient6013"
       id="linearGradient6015"
       x1="116.55006"
       y1="67.726761"
       x2="238.38126"
       y2="67.726761"
       gradientUnits="userSpaceOnUse" /><linearGradient
       inkscape:collect="always"
       xlink:href="#linearGradient6021"
       id="linearGradient6023"
       x1="143.25095"
       y1="94.349632"
       x2="215.63103"
       y2="94.349632"
       gradientUnits="userSpaceOnUse" /><linearGradient
       inkscape:collect="always"
       xlink:href="#linearGradient6305"
       id="linearGradient6307"
       x1="140.53897"
       y1="38.396065"
       x2="216.84824"
       y2="38.396065"
       gradientUnits="userSpaceOnUse" /></defs><g
     inkscape:label="Vetorização"
     inkscape:groupmode="layer"
     id="layer1"><g
       id="g5976"
       transform="translate(-113.96566,-22.734288)"><path
         style="opacity:1;fill:#ffffff;fill-opacity:1;stroke-width:1.32292;stroke-linecap:round;stroke-linejoin:round;stroke-miterlimit:10.5;paint-order:markers fill stroke"
         d="m 144.57387,81.810072 -0.0331,2.811198 5.52317,7.9375 18.12875,11.41575 2.05797,-0.60804 4.11595,0.70159 7.57709,0.14031 8.69963,-1.68379 7.81095,-3.554686 3.64823,-2.736173 7.57709,-6.828734 1.94104,-2.923262 0.29233,-1.064067 1.44994,-2.759556 3.30989,-31.24205 -1.98858,-4.410036 -3.46114,-5.612659 -4.67722,-5.144939 -8.65848,-6.065179 -10.91406,-3.505729 -9.19234,-1.139918 -10.19633,2.151521 -8.51254,3.601455 -3.48499,1.93538 -5.90351,4.71289 -5.8043,7.524089 -3.57188,7.805208 z"
         id="path5888"
         inkscape:label="background" /><path
         style="display:inline;opacity:1;fill:url(#linearGradient6015);fill-opacity:1;stroke-width:1.32292;stroke-linecap:round;stroke-linejoin:round;stroke-miterlimit:10.5;paint-order:markers fill stroke"
         d="m 117.05008,62.076482 2.42512,-2.025103 0.42502,-1.075055 1.72509,-0.875046 1.42507,-0.425021 0.72504,-1.20006 1.20006,-0.175009 1.12506,-0.900046 2.22511,-0.525026 1.20006,-0.750038 0.075,-0.57503 1.52508,-0.05 1.42507,-1.075055 c 0,0 1.72509,-0.425021 1.8251,-0.425021 0.1,0 1.34841,0.324617 1.34841,0.324617 l 0.68062,-0.282858 1.40545,0.159107 0.51268,-0.777856 1.57812,0.251973 1.85009,-0.200009 2.07511,-0.025 1.42507,-0.325017 1.25007,0.025 0.60003,0.275014 h 1.90009 l 2.77515,-0.125005 14.20072,-0.075 0.80004,-0.350019 5.97531,-0.100005 2.35012,-0.125005 0.27501,-0.225012 6.60034,-0.025 0.70003,0.125005 11.42559,-0.075 0.32501,-0.20001 h 5.7753 l 3.12516,-0.075 3.25016,-0.250012 6.00031,0.325016 2.62513,0.05 1.60009,-0.35002 12.07561,-0.300014 0.52503,0.025 0.075,1.425072 0.55003,0.475025 0.52503,-0.475025 c 0.20625,-0.09593 0.42028,-0.145132 0.65003,-0.100005 0.19823,0.12679 0.31989,0.330141 0.45002,0.525026 0.23173,-0.06157 0.44045,-0.169165 0.62504,-0.325017 0.58336,0.05895 1.16672,0.06111 1.75008,0.05 l 1.12506,-0.300016 c 0.18334,0.262069 0.36669,0.289169 0.55003,0.400021 -0.14314,0.185316 -0.29136,0.363004 -0.50003,0.450024 0.0177,0.625031 -0.0568,1.250063 -0.1,1.875094 -0.17079,0.375577 -0.37145,0.452407 -0.57503,0.500026 l -2.80014,-0.025 c 0.35032,0.174456 0.64973,0.442245 0.90004,0.800042 l 0.57503,1.300065 0.72504,-0.05 0.075,0.775039 0.45003,0.62503 v 0.400021 l 0.57503,0.675034 0.27501,1.200063 0.55003,-1.125059 0.075,1.575081 0.67504,0.650034 0.97505,0.825042 -0.42502,1.17506 -0.52503,0.325017 0.05,0.800042 0.37502,0.100004 0.10001,0.975051 0.65003,1.22506 -1.20006,0.675037 -0.12501,1.275064 1.45007,0.05 -0.62503,1.250066 -0.50002,1.375069 0.125,1.400072 0.35002,0.125005 0.17501,-0.425022 0.57503,-0.075 0.30001,0.450025 0.05,4.32522 c -0.0867,0.268336 -0.23853,0.514965 -0.42503,0.750038 -0.25615,0.451777 -0.54596,0.844654 -1.00005,0.950048 h -0.70003 l -0.73754,0.025 -0.92505,0.075 -0.36252,-0.250013 -0.43752,0.43752 0.075,0.312518 -2.31262,0.0625 -1.40007,0.287515 -1.70009,0.987548 -2.08761,0.08751 -0.62503,0.312516 -0.43752,0.537527 -1.16256,0.075 -0.40002,0.212511 -0.30002,0.125005 -0.1375,0.237514 h -1.37507 l -0.75004,-0.18751 -0.71254,0.437523 -1.05005,0.025 -1.03755,0.350017 -0.97505,0.637535 -2.07511,0.025 -1.325,-0.121179 -1.00768,0.123751 -3.0584,-0.05304 -4.72017,0.05304 -0.30054,0.05303 -4.57875,0.106072 -4.26054,-0.106072 -6.13446,0.01767 -0.77786,-0.459644 -0.91928,0.14143 -0.51268,0.512678 -2.15679,0.07072 -2.79321,0.106072 -0.60107,-0.05304 -0.45965,-0.424286 -0.30053,0.512678 -0.77016,-0.154877 -2.31262,-0.0375 -3.08766,-0.075 -1.92509,0.100005 -1.77509,0.05 -2.17511,0.075 -2.55013,-0.06251 -2.26262,-0.112506 -1.87509,0.125008 -0.92505,0.200009 -2.16262,-0.05 h -3.23766 l -2.0001,0.0625 -0.35002,0.125007 -0.23751,0.212511 -2.58764,0.0625 -2.1001,-0.150008 -4.25022,-0.01252 h -5.18776 c -0.85838,0.12885 -1.71676,0.141252 -2.57513,0.175012 -0.068,-0.114653 -0.14596,-0.214428 -0.15001,-0.425024 -0.24322,0.199242 -0.56517,0.359115 -0.97505,0.475025 l -0.92505,0.200011 c -0.79912,0.02315 -1.45448,-0.241204 -2.12511,-0.475024 l -0.25001,-0.525029 c -0.36434,0.368506 -0.72932,0.735628 -1.17506,0.925049 -0.75837,-0.01212 -1.51674,-0.01613 -2.27512,-0.125007 h -1.87509 l -2.17511,0.800041 h -1.50006 l -1.52507,0.05 -0.75004,0.150009 -0.20001,0.400021 -1.05006,-0.55003 -1.25006,-1.975098 -0.10001,-2.375122 -0.25001,-1.700085 -0.27501,-0.075 -0.05,-1.500076 -0.55003,-0.825043 -0.05,-0.97505 0.25001,-0.100005 0.025,-2.275117 0.80004,-0.775039 0.15001,-2.275115 1.07506,-0.925049 0.22501,-2.075106 -0.87505,0.525028 -0.67503,0.100005 -0.075,-0.57503 -0.50003,-0.025 -0.025,-1.125058 -0.72503,-0.850043 -0.30002,-0.625033 -0.025,-0.800039 0.32502,-0.175009 -0.70004,-1.250064 z"
         id="path5890"
         sodipodi:nodetypes="cccccccccccccscccccccccccccccccccccccccccccccccccccccccccccccccccccccccccccccccccccccccccccccccccccccccccccccccccccccccccccccccccccccccccccccccccccccccccccccccccccccccccccccccccccccccc" /><path
         sodipodi:type="star"
         style="opacity:1;fill:#ffffff;fill-opacity:1;stroke-width:1.32292;stroke-linecap:round;stroke-linejoin:round;stroke-miterlimit:10.5;paint-order:markers fill stroke"
         id="path5892"
         inkscape:flatsided="false"
         sodipodi:sides="8"
         sodipodi:cx="102.3375"
         sodipodi:cy="54.068626"
         sodipodi:r1="3.2276182"
         sodipodi:r2="1.0950333"
         sodipodi:arg1="-0.014491733"
         sodipodi:arg2="0.37820735"
         inkscape:rounded="0"
         inkscape:randomized="0"
         d="m 105.56478,54.021854 -2.20963,0.451119 1.29746,1.844612 -1.88144,-1.243459 -0.3869,2.22178 -0.45112,-2.209634 -1.84461,1.297458 1.24346,-1.881436 -2.221778,-0.386895 2.209638,-0.451119 -1.29746,-1.844612 1.88143,1.243458 0.3869,-2.221779 0.45112,2.209634 1.84461,-1.297459 -1.24346,1.881437 z"
         transform="rotate(1.3725777,105.11477,4931.6463)" /><path
         sodipodi:type="star"
         style="opacity:1;fill:#ffffff;fill-opacity:1;stroke-width:1.32292;stroke-linecap:round;stroke-linejoin:round;stroke-miterlimit:10.5;paint-order:markers fill stroke"
         id="path5894"
         inkscape:flatsided="false"
         sodipodi:sides="8"
         sodipodi:cx="102.3375"
         sodipodi:cy="54.068626"
         sodipodi:r1="3.2276182"
         sodipodi:r2="1.0950333"
         sodipodi:arg1="-0.014491733"
         sodipodi:arg2="0.37820735"
         inkscape:rounded="0"
         inkscape:randomized="0"
         d="m 105.56478,54.021854 -2.20963,0.451119 1.29746,1.844612 -1.88144,-1.243459 -0.3869,2.22178 -0.45112,-2.209634 -1.84461,1.297458 1.24346,-1.881436 -2.221778,-0.386895 2.209638,-0.451119 -1.29746,-1.844612 1.88143,1.243458 0.3869,-2.221779 0.45112,2.209634 1.84461,-1.297459 -1.24346,1.881437 z"
         transform="rotate(1.3725777,-220.81493,5385.6592)" /><path
         sodipodi:type="star"
         style="opacity:1;fill:#ffffff;fill-opacity:1;stroke-width:1.32292;stroke-linecap:round;stroke-linejoin:round;stroke-miterlimit:10.5;paint-order:markers fill stroke"
         id="path5896"
         inkscape:flatsided="false"
         sodipodi:sides="8"
         sodipodi:cx="102.3375"
         sodipodi:cy="54.068626"
         sodipodi:r1="3.2276182"
         sodipodi:r2="1.0950333"
         sodipodi:arg1="-0.014491733"
         sodipodi:arg2="0.37820735"
         inkscape:rounded="0"
         inkscape:randomized="0"
         d="m 105.56478,54.021854 -2.20963,0.451119 1.29746,1.844612 -1.88144,-1.243459 -0.3869,2.22178 -0.45112,-2.209634 -1.84461,1.297458 1.24346,-1.881436 -2.221778,-0.386895 2.209638,-0.451119 -1.29746,-1.844612 1.88143,1.243458 0.3869,-2.221779 0.45112,2.209634 1.84461,-1.297459 -1.24346,1.881437 z"
         transform="rotate(1.3725777,-885.54153,4758.4994)" /><path
         sodipodi:type="star"
         style="opacity:1;fill:#ffffff;fill-opacity:1;stroke-width:1.32292;stroke-linecap:round;stroke-linejoin:round;stroke-miterlimit:10.5;paint-order:markers fill stroke"
         id="path5898"
         inkscape:flatsided="false"
         sodipodi:sides="8"
         sodipodi:cx="102.3375"
         sodipodi:cy="54.068626"
         sodipodi:r1="3.2276182"
         sodipodi:r2="1.0950333"
         sodipodi:arg1="-0.014491733"
         sodipodi:arg2="0.37820735"
         inkscape:rounded="0"
         inkscape:randomized="0"
         d="m 105.56478,54.021854 -2.20963,0.451119 1.29746,1.844612 -1.88144,-1.243459 -0.3869,2.22178 -0.45112,-2.209634 -1.84461,1.297458 1.24346,-1.881436 -2.221778,-0.386895 2.209638,-0.451119 -1.29746,-1.844612 1.88143,1.243458 0.3869,-2.221779 0.45112,2.209634 1.84461,-1.297459 -1.24346,1.881437 z"
         transform="rotate(1.3725777,-861.60233,1785.3692)" /><path
         sodipodi:type="star"
         style="opacity:1;fill:#ffffff;fill-opacity:1;stroke-width:1.32292;stroke-linecap:round;stroke-linejoin:round;stroke-miterlimit:10.5;paint-order:markers fill stroke"
         id="path5900"
         inkscape:flatsided="false"
         sodipodi:sides="8"
         sodipodi:cx="102.3375"
         sodipodi:cy="54.068626"
         sodipodi:r1="3.2276182"
         sodipodi:r2="1.0950333"
         sodipodi:arg1="-0.014491733"
         sodipodi:arg2="0.37820735"
         inkscape:rounded="0"
         inkscape:randomized="0"
         d="m 105.56478,54.021854 -2.20963,0.451119 1.29746,1.844612 -1.88144,-1.243459 -0.3869,2.22178 -0.45112,-2.209634 -1.84461,1.297458 1.24346,-1.881436 -2.221778,-0.386895 2.209638,-0.451119 -1.29746,-1.844612 1.88143,1.243458 0.3869,-2.221779 0.45112,2.209634 1.84461,-1.297459 -1.24346,1.881437 z"
         transform="rotate(1.3725777,-476.87913,1167.9534)" /><path
         sodipodi:type="star"
         style="opacity:1;fill:#ffffff;fill-opacity:1;stroke-width:1.32292;stroke-linecap:round;stroke-linejoin:round;stroke-miterlimit:10.5;paint-order:markers fill stroke"
         id="path5902"
         inkscape:flatsided="false"
         sodipodi:sides="8"
         sodipodi:cx="102.3375"
         sodipodi:cy="54.068626"
         sodipodi:r1="3.2276182"
         sodipodi:r2="1.0950333"
         sodipodi:arg1="-0.014491733"
         sodipodi:arg2="0.37820735"
         inkscape:rounded="0"
         inkscape:randomized="0"
         d="m 105.56478,54.021854 -2.20963,0.451119 1.29746,1.844612 -1.88144,-1.243459 -0.3869,2.22178 -0.45112,-2.209634 -1.84461,1.297458 1.24346,-1.881436 -2.221778,-0.386895 2.209638,-0.451119 -1.29746,-1.844612 1.88143,1.243458 0.3869,-2.221779 0.45112,2.209634 1.84461,-1.297459 -1.24346,1.881437 z"
         transform="rotate(1.3725777,47.746473,1625.5845)" /><path
         sodipodi:type="star"
         style="opacity:1;fill:#ffffff;fill-opacity:1;stroke-width:1.32292;stroke-linecap:round;stroke-linejoin:round;stroke-miterlimit:10.5;paint-order:markers fill stroke"
         id="path5904"
         inkscape:flatsided="false"
         sodipodi:sides="8"
         sodipodi:cx="102.3375"
         sodipodi:cy="54.068626"
         sodipodi:r1="3.2276182"
         sodipodi:r2="1.0950333"
         sodipodi:arg1="-0.014491733"
         sodipodi:arg2="0.37820735"
         inkscape:rounded="0"
         inkscape:randomized="0"
         d="m 105.56478,54.021854 -2.20963,0.451119 1.29746,1.844612 -1.88144,-1.243459 -0.3869,2.22178 -0.45112,-2.209634 -1.84461,1.297458 1.24346,-1.881436 -2.221778,-0.386895 2.209638,-0.451119 -1.29746,-1.844612 1.88143,1.243458 0.3869,-2.221779 0.45112,2.209634 1.84461,-1.297459 -1.24346,1.881437 z"
         transform="rotate(1.3725777,-355.23423,3356.5161)" /><path
         style="opacity:1;fill:#000000;stroke-width:1.32292;stroke-linecap:round;stroke-linejoin:round;stroke-miterlimit:10.5;paint-order:markers fill stroke"
         d="m 171.90288,48.200774 c -0.53117,0.84599 0.18723,1.141349 0.71253,0.418772 0.57017,-1.134477 1.34689,-1.933323 1.20629,-4.222801 -0.79009,-3.201045 -3.61163,-2.315117 -4.33125,-2.156785 -7.53374,1.930098 -10.42312,7.005883 -10.66625,9.743038 0.0291,1.715775 0.59086,3.213272 3.40035,4.134641 -12.20067,6.811657 -9.37948,16.720453 -9.54661,16.283038 1.89987,5.155303 5.28377,3.994728 7.56661,3.729106 4.89799,-0.973616 8.48129,-5.121805 11.97723,-8.344286 0.2264,-0.499767 0.80725,-1.227759 -0.59223,-0.680624 -1.70481,2.52224 -6.38734,5.945506 -8.0021,6.997223 -2.28763,0.758801 -4.7856,2.577689 -6.52533,0.57503 -0.98547,-2.276091 -4.4462,-5.736575 4.90025,-15.925814 l 3.05075,-2.103316 c 0.20296,-0.06275 0.98625,-0.479488 0,-0.7425 -4.05029,-0.252947 -3.79836,-2.183757 -3.2175,-4.242856 2.50928,-3.553156 8.62661,-8.718462 10.99608,-7.637145 0.38545,2.025488 -0.19518,3.170142 -0.92882,4.175279 z"
         id="path5906"
         sodipodi:nodetypes="cccccccccccccccccc" /><path
         style="opacity:1;fill:#000000;stroke-width:1.32292;stroke-linecap:round;stroke-linejoin:round;stroke-miterlimit:10.5;paint-order:markers fill stroke"
         d="m 177.50316,61.738967 c 0.0198,0.834522 0.54984,0.747275 0.82504,0.0375 0.42789,-4.173609 -2.39608,-3.990857 -2.78764,-4.125213 -6.16331,0.409742 -5.20617,7.223474 -4.51208,8.543169 1.19036,3.064286 3.74764,4.551354 3.57107,9.192858 -0.89049,4.241364 -2.48183,3.66037 -3.67714,2.86393 -0.51772,-1.746592 0.30751,-4.608127 3.81857,-5.692503 l -0.2475,-0.707141 c -1.62491,0.312882 -2.87301,1.643145 -4.03071,3.2175 -0.82954,2.030986 -0.17467,3.121734 0.0884,3.531292 0.95444,1.191658 3.73148,1.748351 5.97535,-1.202142 1.38992,-1.745052 1.21335,-3.793323 0.8309,-5.864864 1.77303,-1.296945 3.52715,-2.139893 5.32125,-3.942321 0.64272,-0.609609 -0.11479,-0.785997 -0.54804,-0.282858 -1.56774,1.603832 -3.36298,2.259734 -5.05607,3.341251 -0.42575,-1.243054 -0.99526,-2.792396 -2.7225,-5.056071 -1.16288,-1.778155 -0.69934,-2.936724 -0.53036,-4.207502 0.20648,-0.571301 0.94,-2.801386 2.79322,-2.770725 1.26295,0.42663 1.01052,1.924066 0.88825,3.12384 z"
         id="path5908"
         sodipodi:nodetypes="ccccccccccccccccccc" /><path
         style="opacity:1;fill:#000000;stroke-width:1.32292;stroke-linecap:round;stroke-linejoin:round;stroke-miterlimit:10.5;paint-order:markers fill stroke"
         d="m 196.51663,48.413284 c -0.18257,-1.798451 -0.0384,-3.986433 -1.87509,-3.812693 -5.11048,1.459585 -7.86364,9.234099 -8.76306,13.497046 -0.0776,3.702917 1.96692,3.702364 3.42964,2.828575 2.54733,-1.268478 3.9678,-3.588692 5.55843,-5.750083 l 0.40002,1.312567 c -2.87027,2.635332 -5.08479,7.037096 -9.51299,5.537783 -1.71901,-0.861246 -3.74221,-1.973375 -2.0001,-7.800399 3.39502,-7.873416 6.83089,-10.92736 10.2925,-10.943085 1.57169,0.166865 2.57097,1.085022 3.07607,2.651786 l 0.56572,-3.005357 c 0.6793,-3.200391 2.65555,-0.378736 2.40199,1.739219 -1.76554,9.655722 -5.04463,19.390108 -7.63485,27.35971 -2.15781,7.398799 -4.72487,6.772323 -6.47036,7.036072 -4.06589,-0.93423 -4.36478,-4.381589 -3.32357,-6.364287 0.27435,-0.468702 1.52613,-3.36006 5.7486,-4.142354 0.89471,-0.188902 1.98482,-0.08724 2.99429,-0.118477 l -0.0637,0.88593 c -1.99916,-0.550765 -3.93174,-0.350887 -6.76162,1.876711 -1.36484,1.391073 -2.08804,2.969943 -1.52507,4.925251 0.83756,1.138252 1.69615,2.241891 4.1002,0.800041 1.57297,-1.272088 2.68756,-4.606842 3.8002,-7.950406 l 3.25016,-12.000612 z"
         id="path5910"
         sodipodi:nodetypes="cccccccccccccccccccccccc" /><path
         style="opacity:1;fill:#000000;stroke-width:1.32292;stroke-linecap:round;stroke-linejoin:round;stroke-miterlimit:10.5;paint-order:markers fill stroke"
         d="m 164.34156,58.402594 c 1.01328,-1.130468 0.71332,0.09219 0.40219,0.327054 -4.00892,3.443878 -6.18689,2.354777 -9.55527,2.479419 -7.30972,-1.767245 -14.61846,-3.595438 -18.89852,3.534435 -0.59589,0.919931 -0.5874,1.968835 0.14847,2.302647 1.97476,0.39662 1.56023,-1.220793 0.57745,-1.5076 -0.48975,-0.142924 -1.06336,-0.152393 -1.59643,-0.238162 -0.70065,0.01478 -1.38707,0.329018 -1.64352,0.751298 -0.31831,0.761212 -1.25613,0.240354 -0.45584,-0.564403 0.94421,-0.81775 2.21369,-0.857254 2.99243,-0.675258 2.07013,0.40798 2.30166,1.188292 1.78962,2.310525 -0.74429,0.86297 -1.86173,0.522403 -2.16562,0.291698 -0.5763,-0.394717 -0.69673,-0.881692 -0.64706,-1.403092 0.20184,-2.489032 1.7585,-3.700075 2.61033,-4.43527 3.19353,-2.847631 7.03939,-2.973768 10.19958,-2.647355 2.72327,0.441127 4.46947,1.304411 7.37197,1.485001 0.60548,0.06603 1.20577,0.136554 1.80591,0.181708 1.89791,0.142798 3.79432,0.03183 5.84891,-1.27778 0.40513,-0.242971 0.81027,-0.405756 1.2154,-0.914865 z"
         id="path5912"
         sodipodi:nodetypes="cccccsccccccccccscc" /><path
         style="opacity:1;fill:#000000;stroke-width:1.32292;stroke-linecap:round;stroke-linejoin:round;stroke-miterlimit:10.5;paint-order:markers fill stroke"
         d="m 192.51285,68.281223 c 0.38493,0.241284 1.98141,0.185526 4.04128,0.0081 1.03125,-0.07827 1.83471,-0.445075 2.63764,-0.81254 0.6864,-0.212216 0.68418,0.268773 0.37502,0.412519 -2.741,1.172239 -3.48979,0.984901 -3.96733,1.020526 -3.03686,0.244279 -3.84072,0.274896 -2.93765,0 z"
         id="path5914"
         sodipodi:nodetypes="ccccccc" /><path
         style="opacity:1;fill:#000000;stroke-width:1.32292;stroke-linecap:round;stroke-linejoin:round;stroke-miterlimit:10.5;paint-order:markers fill stroke"
         d="m 192.28038,71.187237 -0.11693,1.29793 c 1.4644,-1.069977 2.1796,-2.439629 4.75907,-3.063579 2.78728,-0.542469 5.40466,-0.362853 7.94328,0.151506 2.75607,1.014916 5.51215,1.108819 8.26822,0.760677 1.51285,-0.363903 2.69812,-0.04398 6.05235,-2.844271 2.57523,-2.183919 2.74135,-4.010224 2.44739,-5.04362 -0.83352,-1.992938 -2.72919,-0.728068 -2.64583,-0.545703 -0.60665,1.095967 0.31439,1.693465 0.81029,1.819011 0.57887,0.154985 1.25527,0.852076 3.07578,0.08268 0.36095,-0.147588 0.66329,-0.383099 0.95911,-0.628386 0.42556,-0.361537 0.4255,-1.058915 -0.39687,-0.429947 -1.25275,1.115748 -2.22363,0.881833 -3.22461,0.496093 -0.53128,-0.162476 -1.14389,-0.520135 -0.78598,-1.028931 0.0666,-0.09466 0.16634,-0.188494 0.30642,-0.277449 1.24485,-0.264782 1.72832,1.147184 0.79375,3.092318 -1.6284,2.632115 -3.83584,3.48691 -6.00273,4.464843 -3.44259,0.617123 -6.59057,0.0926 -9.68438,-0.641781 -2.55639,-0.406054 -5.24273,-0.63016 -8.72301,0.257247 -1.60264,0.606557 -3.73932,2.133721 -3.83532,2.081362 z"
         id="path5916"
         sodipodi:nodetypes="cccccccccccccscccccc" /><path
         style="opacity:1;fill:url(#linearGradient6023);fill-opacity:1;stroke-width:1.32292;stroke-linecap:round;stroke-linejoin:round;stroke-miterlimit:10.5;paint-order:markers fill stroke"
         d="m 145.35108,83.711764 0.79375,-0.04961 c 0.97474,2.412182 2.81906,5.323254 5.85391,8.45013 4.24542,4.060485 8.56326,7.61412 13.17956,9.078516 3.70561,1.66944 7.64407,2.6869 11.97239,2.61276 5.53891,0.23616 10.81825,-0.3929 15.61042,-2.64584 4.99142,-2.384552 9.98897,-4.757153 13.82448,-9.392701 2.33545,-2.647515 4.89149,-5.525676 6.41614,-8.830469 l 0.31443,0.06266 c -0.11417,0.956822 -0.83961,1.697902 -1.28623,2.537388 0.54821,-0.873511 1.10403,-1.669914 1.59025,-2.6894 l 0.44434,0.128625 c -2.36472,6.141714 -7.02921,10.231166 -11.84505,13.563928 l -1.95274,1.379778 c 2.83389,-2.16108 6.37323,-3.658201 8.50167,-6.483239 2.3547,-2.61128 4.10735,-5.454325 5.65547,-8.565885 l 0.42994,0.148828 c 0.11613,0.14688 0.0114,0.519776 0,0.79375 0.0957,-0.242049 0.23537,-0.473081 0.21498,-0.74414 l 0.56224,-0.198438 c -0.85921,2.548165 -1.99361,3.926723 -3.09232,5.457031 -1.0663,1.368866 -2.14574,2.727217 -3.27222,4.04794 -0.96645,1.133101 -1.96752,2.238505 -3.02462,3.29909 l 3.32082,-4.186108 c -1.86881,2.075986 -3.91273,3.509868 -5.8699,5.261869 -3.37682,2.591167 -6.49198,4.001333 -8.41899,4.770753 -2.78507,1.25828 -5.97379,2.36855 -10.61556,2.94604 -5.14913,0.60892 -9.28558,0.53462 -13.95677,-0.39689 l 1.23691,0.48102 0.54903,0.21351 c 6.07737,1.17486 12.42229,0.56877 18.35547,-0.79375 -3.2762,1.02674 -6.66817,1.60699 -10.2526,1.88516 -4.72663,-0.12256 -9.43679,-0.31758 -13.85756,-1.78594 -3.48474,-1.20988 -6.95685,-2.58405 -10.31875,-5.390881 -5.81909,-4.09788 -10.10827,-8.894316 -13.16302,-14.849739 l 1.30638,-0.545704 c 1.01705,2.161266 2.10136,4.360703 3.98529,6.697266 0.86621,0.980126 1.73474,2.020326 2.57968,2.447396 -2.5193,-2.069529 -4.66864,-5.222487 -5.77122,-8.714704 z"
         id="path5918"
         sodipodi:nodetypes="cccccccccccccccccccccsccccccccccccccccc" /><g
         aria-label="Nutricionista"
         id="g5946"
         style="font-size:6.35px;line-height:0px;font-family:Arial;-inkscape-font-specification:Arial;opacity:1;fill:#00a500;fill-opacity:1;stroke-width:1.32292;stroke-linecap:round;stroke-linejoin:round;stroke-miterlimit:10.5;paint-order:markers fill stroke"
         inkscape:path-effect="#path-effect5980"
         class="UnoptimicedTransforms"
         transform="translate(113.48533,0.61606338)"><path
           d="m 48.675109,94.557904 2.840649,-3.548284 c 0.163529,0.130678 0.328752,0.259327 0.495604,0.385904 -0.07416,1.437171 -0.03151,2.914637 0.134203,4.414197 l 1.871815,-3.040509 c 0.166783,0.102707 0.33476,0.203456 0.503877,0.302212 l -2.291765,3.927641 C 52.015362,96.8742 51.802824,96.74661 51.591946,96.616336 51.402142,95.09891 51.33636,93.602418 51.38834,92.145077 l -2.165842,2.841061 C 49.03834,94.845579 48.855859,94.702822 48.675109,94.557904 Z"
           id="path5920"
           inkscape:original-d="m 51.548274,94.853127 v -4.545459 h 0.617017 l 2.387451,3.568774 v -3.568774 h 0.576709 v 4.545459 h -0.617017 l -2.387451,-3.571875 v 3.571875 z"
           style="fill:#00a500;fill-opacity:1" /><path
           d="m 55.566241,98.667946 0.188362,-0.445149 c -0.424445,0.224068 -0.888164,0.225872 -1.369663,-0.0025 -0.212168,-0.100635 -0.393499,-0.230966 -0.542357,-0.389037 -0.146638,-0.156956 -0.236977,-0.308653 -0.272637,-0.453213 -0.03253,-0.145317 -0.02715,-0.299179 0.01522,-0.461654 0.0279,-0.109469 0.09787,-0.268576 0.209877,-0.478505 l 0.960608,-1.800388 c 0.17556,0.09373 0.35217,0.185449 0.529779,0.275111 l -0.822461,1.630636 c -0.131371,0.260461 -0.207902,0.441246 -0.229685,0.543931 -0.02919,0.149554 -0.0028,0.29233 0.0807,0.42771 0.08432,0.133412 0.217014,0.243541 0.39722,0.328029 0.180176,0.08447 0.368071,0.123484 0.56122,0.116744 0.194062,-0.0086 0.352274,-0.06755 0.474609,-0.174567 0.125628,-0.108175 0.242364,-0.291526 0.352566,-0.550189 l 0.691048,-1.62201 c 0.18279,0.07799 0.366443,0.153832 0.550907,0.227503 l -1.218462,3.055725 c -0.186413,-0.07411 -0.372041,-0.150175 -0.556846,-0.228165 z"
           id="path5922"
           inkscape:original-d="m 58.226936,94.853127 v -0.483692 q -0.384473,0.558106 -1.044897,0.558106 -0.291456,0 -0.545704,-0.111622 -0.251147,-0.111621 -0.37517,-0.279052 -0.120923,-0.170532 -0.170533,-0.415479 -0.03411,-0.164331 -0.03411,-0.520898 v -2.040186 h 0.558105 v 1.826245 q 0,0.437183 0.03411,0.589112 0.05271,0.220141 0.223242,0.347265 0.170532,0.124024 0.42168,0.124024 0.251147,0 0.471289,-0.127124 0.220141,-0.130225 0.310058,-0.350366 0.09302,-0.223243 0.09302,-0.644922 v -1.764234 h 0.558105 v 3.292823 z"
           style="fill:#00a500;fill-opacity:1" /><path
           d="m 58.649328,99.246492 c -0.01649,0.166206 -0.03241,0.332516 -0.04778,0.498926 -0.19108,-0.02186 -0.358557,-0.05592 -0.501439,-0.100788 -0.233419,-0.0733 -0.403936,-0.163611 -0.510715,-0.266928 -0.106926,-0.103461 -0.168584,-0.213316 -0.18586,-0.328535 -0.01665,-0.117558 0.03096,-0.333191 0.142023,-0.648885 l 0.627783,-1.784406 c -0.139619,-0.04917 -0.278836,-0.09956 -0.417632,-0.151157 l 0.150928,-0.406412 c 0.136447,0.05076 0.273303,0.100331 0.41055,0.148704 l 0.270223,-0.768082 c 0.217059,-0.04158 0.43231,-0.08613 0.645654,-0.133611 l -0.355434,1.091834 c 0.189593,0.06184 0.37987,0.121385 0.570779,0.178613 l -0.124163,0.414986 c -0.194255,-0.05819 -0.387856,-0.118726 -0.580751,-0.181589 l -0.594945,1.827571 c -0.0492,0.151135 -0.07043,0.25149 -0.06354,0.301496 0.0092,0.05068 0.03415,0.09667 0.07496,0.137835 0.04311,0.04188 0.11157,0.07766 0.205224,0.106673 0.07013,0.02173 0.165086,0.04329 0.28413,0.06376 2e-6,-2e-6 4e-6,-4e-6 6e-6,-5e-6 z"
           id="path5924"
           inkscape:original-d="m 60.819026,94.353932 0.08062,0.492993 q -0.235645,0.04961 -0.42168,0.04961 -0.303857,0 -0.471289,-0.09612 -0.167432,-0.09612 -0.235644,-0.251148 -0.06821,-0.15813 -0.06821,-0.660425 v -1.894458 h -0.409278 v -0.434082 h 0.409278 V 90.74485 l 0.555005,-0.334863 v 1.150317 h 0.561206 v 0.434082 H 60.25782 v 1.925464 q 0,0.238745 0.0279,0.306958 0.03101,0.06821 0.09612,0.108521 0.06821,0.04031 0.192236,0.04031 0.09302,0 0.244947,-0.0217 z"
           style="fill:#00a500;fill-opacity:1" /><path
           d="m 59.13246,99.90248 0.868228,-3.168135 c 0.171915,0.0472 0.344298,0.09252 0.517112,0.135928 l -0.121101,0.482937 c 0.191701,-0.192152 0.349555,-0.311898 0.478089,-0.358012 0.130583,-0.04557 0.262494,-0.05356 0.397369,-0.02414 0.194874,0.04251 0.380602,0.141667 0.561874,0.298104 -0.09954,0.156146 -0.200473,0.311731 -0.302788,0.466742 -0.130106,-0.108043 -0.266412,-0.177714 -0.411074,-0.209434 -0.129293,-0.02835 -0.253253,-0.01863 -0.373351,0.02944 -0.119553,0.04604 -0.217055,0.126346 -0.292161,0.241699 -0.113341,0.175953 -0.19955,0.377715 -0.256142,0.605747 l -0.414147,1.66876 c -0.218017,-0.0539 -0.435337,-0.110494 -0.651908,-0.16964 z"
           id="path5926"
           inkscape:original-d="m 61.358528,94.853127 v -3.292823 h 0.502295 v 0.499195 q 0.192236,-0.350367 0.353466,-0.461988 0.164332,-0.111621 0.359668,-0.111621 0.282154,0 0.573609,0.179834 l -0.192237,0.517798 q -0.204638,-0.120923 -0.409277,-0.120923 -0.182934,0 -0.328662,0.111621 -0.145727,0.108521 -0.207739,0.303858 -0.09302,0.297656 -0.09302,0.651123 v 1.723926 z"
           style="fill:#00a500;fill-opacity:1" /><path
           d="m 62.309364,96.630519 0.110918,-0.630197 c 0.184475,0.03249 0.369273,0.06263 0.554345,0.0904 l -0.09512,0.632787 c -0.190373,-0.02858 -0.380438,-0.05958 -0.570147,-0.09299 z m -0.674619,3.832941 0.569059,-3.233189 c 0.19469,0.03428 0.389769,0.0661 0.585186,0.09545 l -0.487987,3.246476 c -0.222612,-0.0335 -0.444714,-0.0698 -0.666258,-0.10874 z"
           id="path5928"
           inkscape:original-d="m 63.482429,90.949489 v -0.641821 h 0.558105 v 0.641821 z m 0,3.903638 v -3.292823 h 0.558105 v 3.292823 z"
           style="fill:#00a500;fill-opacity:1" /><path
           d="m 65.937905,99.664391 c 0.119267,0.0148 0.238783,0.02875 0.358542,0.04183 0.09267,0.0097 0.185379,0.01901 0.278135,0.02784 -0.04217,0.249341 -0.133103,0.464165 -0.275411,0.643735 -0.07483,0.0928 -0.163695,0.17576 -0.266689,0.24838 -0.298163,0.20994 -0.672162,0.30781 -1.110316,0.28523 -0.549141,-0.0283 -0.97955,-0.21383 -1.277121,-0.53778 -0.296268,-0.32725 -0.401624,-0.764668 -0.336815,-1.309322 0.04186,-0.351803 0.144905,-0.652294 0.302192,-0.902058 0.157504,-0.250108 0.369278,-0.427636 0.635623,-0.537361 0.268784,-0.111617 0.549435,-0.159287 0.848753,-0.144928 0.377876,0.01813 0.683772,0.114249 0.926279,0.297813 0.104975,0.07856 0.19459,0.170719 0.268674,0.276995 0.09719,0.139181 0.167587,0.302553 0.210023,0.490486 -0.06921,0.01043 -0.13851,0.0206 -0.207911,0.03052 -0.131297,0.01881 -0.262865,0.03649 -0.394687,0.05305 -0.05461,-0.221682 -0.153011,-0.389482 -0.293845,-0.504433 -0.138804,-0.115071 -0.307055,-0.176225 -0.50764,-0.185745 -0.302937,-0.01438 -0.554676,0.06898 -0.762446,0.255228 -0.206718,0.183404 -0.334764,0.49109 -0.374762,0.923814 -0.04064,0.439728 0.02654,0.767512 0.210758,0.983937 0.183487,0.21557 0.441517,0.33507 0.768088,0.35186 0.262162,0.0135 0.484258,-0.0462 0.661944,-0.1758 0.178052,-0.12989 0.290049,-0.33484 0.338632,-0.613289 z"
           id="path5930"
           inkscape:original-d="m 67.038801,93.646999 0.548803,0.07131 q -0.08992,0.567407 -0.461987,0.889868 -0.36897,0.319361 -0.908471,0.319361 -0.675928,0 -1.088306,-0.440284 -0.409277,-0.443383 -0.409277,-1.268139 0,-0.533301 0.176733,-0.933277 0.176733,-0.399975 0.536401,-0.598413 0.362769,-0.201538 0.787549,-0.201538 0.536401,0 0.877466,0.272852 0.341064,0.269751 0.437183,0.768945 l -0.542603,0.08372 q -0.07752,-0.331763 -0.275952,-0.499194 -0.195337,-0.167432 -0.47439,-0.167432 -0.421679,0 -0.685229,0.303857 -0.26355,0.300757 -0.26355,0.954981 0,0.663525 0.254248,0.964282 0.254248,0.300757 0.663525,0.300757 0.328662,0 0.548804,-0.201538 0.220142,-0.201538 0.279053,-0.620118 z"
           style="fill:#00a500;fill-opacity:1" /><path
           d="m 67.038488,96.958407 -0.02111,-0.640031 c 0.189526,-0.0051 0.379004,-0.01243 0.568422,-0.02196 l 0.0351,0.638567 c -0.194029,0.01002 -0.388168,0.01785 -0.582407,0.02342 z m 0.128426,3.892753 -0.108331,-3.283641 c 0.198724,-0.006 0.3973,-0.01432 0.595717,-0.02482 l 0.180079,3.276127 c -0.222074,0.0131 -0.444567,0.0239 -0.667465,0.0323 z"
           id="path5932"
           inkscape:original-d="M 68.068195,90.949489 V 90.307668 H 68.6263 v 0.641821 z m 0,3.903638 V 91.560304 H 68.6263 v 3.292823 z"
           style="fill:#00a500;fill-opacity:1" /><path
           d="m 68.468526,99.131292 c -0.04824,-0.604644 0.105436,-1.067795 0.439121,-1.392767 0.280196,-0.271482 0.630075,-0.432247 1.05996,-0.491323 0.477782,-0.06566 0.889064,0.01533 1.247596,0.252479 0.356983,0.234346 0.591901,0.603468 0.690236,1.114156 0.07976,0.414244 0.07136,0.753434 -0.03057,1.019446 -0.09974,0.262997 -0.279829,0.485777 -0.541848,0.664597 -0.259475,0.17834 -0.560662,0.29237 -0.899123,0.33902 -0.543409,0.0749 -1.004039,-0.023 -1.366007,-0.28293 -0.360989,-0.26122 -0.555313,-0.670622 -0.59936,-1.222678 z m 0.645196,-0.05891 c 0.04241,0.417574 0.178031,0.719605 0.414619,0.904474 0.235675,0.182295 0.51903,0.252765 0.843381,0.208085 0.321937,-0.0443 0.573754,-0.189502 0.75068,-0.430478 0.1774,-0.241622 0.225744,-0.574022 0.152725,-0.997594 -0.06875,-0.398812 -0.223603,-0.683112 -0.457311,-0.854941 -0.232417,-0.174671 -0.49293,-0.240226 -0.787617,-0.199712 -0.299117,0.04112 -0.534439,0.173659 -0.71138,0.40239 -0.176401,0.228032 -0.247448,0.550804 -0.205097,0.967776 z"
           id="path5934"
           inkscape:original-d="m 69.268121,93.206715 q 0,-0.914672 0.508496,-1.354956 0.424781,-0.365869 1.035596,-0.365869 0.679028,0 1.11001,0.446485 0.430981,0.443383 0.430981,1.227832 0,0.63562 -0.192236,1.001489 -0.189136,0.362768 -0.555005,0.564307 -0.362768,0.201538 -0.79375,0.201538 -0.691431,0 -1.119311,-0.443384 -0.424781,-0.443384 -0.424781,-1.277442 z m 0.573609,0 q 0,0.63252 0.275952,0.94878 0.275952,0.313159 0.694531,0.313159 0.415479,0 0.691431,-0.31626 0.275952,-0.31626 0.275952,-0.964282 0,-0.610816 -0.279053,-0.923975 -0.275952,-0.316259 -0.68833,-0.316259 -0.418579,0 -0.694531,0.313159 -0.275952,0.313159 -0.275952,0.945678 z"
           style="fill:#00a500;fill-opacity:1" /><path
           d="m 72.98128,100.11445 -0.689286,-3.204201 c 0.175681,-0.03799 0.351159,-0.07745 0.526426,-0.118366 l 0.105436,0.454208 c 0.175336,-0.410943 0.495649,-0.673295 0.969628,-0.80054 0.206194,-0.05536 0.404251,-0.07315 0.595856,-0.05283 0.193189,0.01772 0.349418,0.06838 0.468657,0.153536 0.119206,0.08514 0.21952,0.198335 0.300349,0.340015 0.05157,0.09213 0.115039,0.262043 0.189786,0.508994 l 0.586066,1.936237 c -0.209628,0.06275 -0.419823,0.123836 -0.630573,0.183222 l -0.548102,-1.922918 c -0.06219,-0.218179 -0.131913,-0.374478 -0.208218,-0.468526 -0.07696,-0.09615 -0.183178,-0.159347 -0.318413,-0.190437 -0.133656,-0.03369 -0.278335,-0.02956 -0.435213,0.01184 -0.250502,0.0661 -0.448935,0.193368 -0.598382,0.384448 -0.14678,0.189944 -0.174928,0.48976 -0.0793,0.89842 l 0.408114,1.744038 c -0.21376,0.04948 -0.428041,0.09712 -0.642832,0.142866 z"
           id="path5936"
           inkscape:original-d="m 73.007429,94.853127 v -3.292823 h 0.502295 v 0.468189 q 0.362769,-0.542603 1.047998,-0.542603 0.297656,0 0.545703,0.108521 0.251148,0.10542 0.375171,0.279052 0.124024,0.173633 0.173633,0.412378 0.03101,0.15503 0.03101,0.542603 v 2.024683 h -0.558106 v -2.002979 q 0,-0.341064 -0.06511,-0.508496 -0.06511,-0.170532 -0.232544,-0.269751 -0.164331,-0.102319 -0.387573,-0.102319 -0.356568,0 -0.617017,0.226342 -0.257348,0.226343 -0.257348,0.858863 v 1.79834 z"
           style="fill:#00a500;fill-opacity:1" /><path
           d="m 75.776547,95.320299 -0.200812,-0.609975 c 0.185353,-0.06175 0.370478,-0.124993 0.555366,-0.189683 l 0.210194,0.607408 c -0.187964,0.06556 -0.376217,0.129657 -0.564748,0.19225 z m 1.221365,3.709948 -1.030254,-3.12944 c 0.191555,-0.0634 0.382784,-0.12831 0.573677,-0.194693 l 1.078388,3.116269 c -0.206678,0.07084 -0.413952,0.14014 -0.621811,0.207864 z"
           id="path5938"
           inkscape:original-d="m 76.542096,90.949489 v -0.641821 h 0.558106 v 0.641821 z m 0,3.903638 v -3.292823 h 0.558106 v 3.292823 z"
           style="fill:#00a500;fill-opacity:1" /><path
           d="m 77.975807,97.652547 c 0.18862,-0.09928 0.376324,-0.199875 0.56312,-0.30172 0.11214,0.194775 0.265273,0.318712 0.459953,0.370331 0.19681,0.05073 0.433868,0.02196 0.708005,-0.08843 0.276331,-0.111267 0.460564,-0.244209 0.55277,-0.39542 0.09142,-0.153162 0.108589,-0.294916 0.05331,-0.424842 -0.04962,-0.116627 -0.146505,-0.183691 -0.290034,-0.202213 -0.100859,-0.01222 -0.32358,0.01372 -0.673915,0.07231 -0.469244,0.07814 -0.805194,0.110009 -0.998447,0.104304 -0.193425,-0.0085 -0.356835,-0.05942 -0.489982,-0.151531 -0.13174,-0.0949 -0.224897,-0.21857 -0.280623,-0.370291 -0.05072,-0.138104 -0.06304,-0.278182 -0.03794,-0.420102 0.02652,-0.144679 0.08442,-0.278057 0.17343,-0.400515 0.06606,-0.09384 0.166927,-0.190057 0.302408,-0.289609 0.136815,-0.102292 0.291652,-0.188121 0.465127,-0.258076 0.261299,-0.105373 0.50334,-0.165456 0.7284,-0.179171 0.227053,-0.01459 0.413083,0.01601 0.558315,0.0935 0.144338,0.07555 0.277602,0.203326 0.399239,0.383668 -0.175675,0.104109 -0.352082,0.207183 -0.529229,0.309173 -0.09182,-0.146093 -0.217501,-0.237183 -0.376598,-0.274284 -0.15699,-0.03798 -0.345467,-0.01148 -0.567129,0.07803 -0.261772,0.105709 -0.433613,0.218405 -0.515561,0.341455 -0.08192,0.123015 -0.103144,0.237613 -0.06235,0.344164 0.02595,0.06778 0.0729,0.11977 0.141102,0.155751 0.06892,0.03791 0.161255,0.05567 0.2769,0.05279 0.06308,-0.0033 0.257152,-0.02596 0.566678,-0.07125 0.453568,-0.0686 0.76792,-0.10938 0.958642,-0.115221 0.189371,-0.0086 0.355946,0.02548 0.500168,0.103085 0.144137,0.07756 0.255311,0.203456 0.332424,0.378376 0.07543,0.171093 0.08921,0.358175 0.03924,0.561238 -0.04858,0.200128 -0.16472,0.389661 -0.349439,0.566828 -0.18548,0.175209 -0.419419,0.320518 -0.700669,0.433657 -0.465795,0.187376 -0.857663,0.240465 -1.166702,0.165962 -0.307121,-0.07543 -0.553746,-0.267251 -0.740615,-0.571958 1e-6,10e-7 2e-6,2e-6 2e-6,3e-6 z"
           id="path5940"
           inkscape:original-d="m 77.72652,93.870241 0.551904,-0.08682 q 0.04651,0.331763 0.257349,0.508496 0.21394,0.176734 0.595313,0.176734 0.384472,0 0.570507,-0.155029 0.186036,-0.15813 0.186036,-0.36897 0,-0.189136 -0.164332,-0.297656 -0.114721,-0.07441 -0.570507,-0.189136 -0.613916,-0.155029 -0.852661,-0.266651 -0.235645,-0.114721 -0.359668,-0.313159 -0.120923,-0.201538 -0.120923,-0.443383 0,-0.220142 0.09922,-0.406177 0.10232,-0.189136 0.275953,-0.313159 0.130224,-0.09612 0.353466,-0.161231 0.226343,-0.06821 0.483692,-0.06821 0.387573,0 0.679028,0.111621 0.294556,0.111621 0.434082,0.303858 0.139527,0.189135 0.192236,0.508496 l -0.545703,0.07441 q -0.03721,-0.254248 -0.217041,-0.396875 -0.176733,-0.142627 -0.502295,-0.142627 -0.384472,0 -0.548803,0.127124 -0.164331,0.127124 -0.164331,0.297656 0,0.108521 0.06821,0.195337 0.06821,0.08992 0.21394,0.148828 0.08372,0.03101 0.492993,0.142627 0.592212,0.15813 0.824756,0.260449 0.235645,0.09922 0.36897,0.291456 0.133325,0.192236 0.133325,0.47749 0,0.279052 -0.164331,0.527099 -0.161231,0.244947 -0.468189,0.381372 -0.306958,0.133326 -0.694531,0.133326 -0.641821,0 -0.979785,-0.266651 -0.334863,-0.26665 -0.427881,-0.790649 z"
           style="fill:#00a500;fill-opacity:1" /><path
           d="m 83.056567,96.010247 c 0.100441,0.134797 0.201105,0.269451 0.301987,0.40396 -0.149339,0.110557 -0.289552,0.197105 -0.419832,0.259783 -0.212811,0.102383 -0.392621,0.151464 -0.537666,0.1483 -0.145142,-0.0032 -0.263517,-0.04116 -0.355048,-0.113332 -0.09256,-0.07419 -0.20885,-0.264025 -0.34987,-0.569997 l -0.797431,-1.730196 c -0.137022,0.06317 -0.274289,0.125743 -0.411798,0.187695 l -0.179196,-0.397989 c 0.136317,-0.06144 0.27241,-0.123498 0.408277,-0.18615 l -0.343247,-0.744746 c 0.134314,-0.18558 0.267065,-0.371696 0.398319,-0.558283 l 0.496389,1.044915 c 0.185442,-0.08807 0.370445,-0.177221 0.554996,-0.267387 l 0.191761,0.392097 c -0.185998,0.09091 -0.372482,0.180794 -0.559441,0.269597 l 0.830883,1.749036 c 0.0687,0.14461 0.122469,0.23291 0.161511,0.265015 0.04116,0.03105 0.09019,0.048 0.147058,0.05075 0.05901,0.0017 0.131644,-0.01812 0.21762,-0.05969 0.06443,-0.03115 0.146206,-0.07892 0.244737,-0.143373 -3e-6,-10e-7 -6e-6,-2e-6 -9e-6,-4e-6 z"
           id="path5942"
           inkscape:original-d="m 82.343294,94.353932 0.08061,0.492993 q -0.235645,0.04961 -0.42168,0.04961 -0.303857,0 -0.471289,-0.09612 -0.167431,-0.09612 -0.235644,-0.251148 -0.06821,-0.15813 -0.06821,-0.660425 v -1.894458 h -0.409278 v -0.434082 h 0.409278 V 90.74485 l 0.555005,-0.334863 v 1.150317 h 0.561206 v 0.434082 h -0.561206 v 1.925464 q 0,0.238745 0.02791,0.306958 0.03101,0.06821 0.09612,0.108521 0.06821,0.04031 0.192236,0.04031 0.09302,0 0.244947,-0.0217 z"
           style="fill:#00a500;fill-opacity:1" /><path
           d="m 85.845942,94.655327 c -0.121942,0.2694 -0.264042,0.489467 -0.424808,0.659378 -0.158655,0.168757 -0.350632,0.313061 -0.575394,0.431749 -0.371171,0.196 -0.699681,0.26474 -0.979878,0.208826 -0.28148,-0.05784 -0.482749,-0.211996 -0.605904,-0.45939 -0.07223,-0.145105 -0.1009,-0.295634 -0.08688,-0.451414 0.01519,-0.158687 0.06391,-0.304153 0.145965,-0.436697 0.08415,-0.133625 0.191067,-0.257168 0.320833,-0.371086 0.0965,-0.08277 0.24809,-0.192961 0.455453,-0.333249 0.421387,-0.283863 0.718169,-0.520575 0.889773,-0.699946 -0.03495,-0.06822 -0.05746,-0.111455 -0.06745,-0.129577 -0.109951,-0.199522 -0.238878,-0.311855 -0.386006,-0.337641 -0.199437,-0.03515 -0.434939,0.02096 -0.709194,0.166849 -0.256155,0.136266 -0.424776,0.276668 -0.505773,0.424051 -0.07982,0.144301 -0.09603,0.336003 -0.04847,0.575362 -0.19224,0.07064 -0.384782,0.140252 -0.5776,0.208793 -0.05548,-0.234734 -0.05921,-0.444435 -0.01178,-0.628958 0.04652,-0.186491 0.15743,-0.367382 0.332051,-0.54402 0.173724,-0.178541 0.397318,-0.33982 0.671466,-0.485895 0.2722,-0.145037 0.507766,-0.235395 0.709052,-0.270018 0.201159,-0.0346 0.366066,-0.03027 0.495162,0.01397 0.128021,0.04241 0.245621,0.121228 0.35262,0.236702 0.06457,0.07279 0.157948,0.217445 0.279741,0.433654 l 0.365502,0.648847 c 0.25498,0.452643 0.427328,0.732361 0.5182,0.840414 0.09172,0.104862 0.203627,0.192227 0.335908,0.261712 -0.193682,0.111233 -0.388212,0.221621 -0.583576,0.331108 -0.114454,-0.06882 -0.217374,-0.166723 -0.30902,-0.293519 0,-10e-7 10e-7,-10e-7 2e-6,-2e-6 z m -0.649406,-1.068103 c -0.159014,0.182209 -0.426739,0.410181 -0.803696,0.676368 -0.213901,0.151406 -0.359337,0.269227 -0.436117,0.35611 -0.07658,0.08666 -0.122603,0.179362 -0.137891,0.278365 -0.01623,0.09714 -0.0023,0.189195 0.04221,0.276089 0.06816,0.133097 0.181842,0.2149 0.341638,0.244405 0.16179,0.02839 0.354056,-0.01552 0.574848,-0.132701 0.218667,-0.11605 0.390362,-0.261759 0.514602,-0.43562 0.123277,-0.17572 0.18421,-0.357299 0.183727,-0.543981 -0.0011,-0.143877 -0.06135,-0.323471 -0.180345,-0.539424 -0.03299,-0.05987 -0.06598,-0.11974 -0.09898,-0.179611 z"
           id="path5944"
           inkscape:original-d="m 85.037702,94.44695 q -0.310058,0.26355 -0.598413,0.37207 -0.285254,0.108521 -0.613916,0.108521 -0.542602,0 -0.834058,-0.26355 -0.291455,-0.266651 -0.291455,-0.679029 0,-0.241845 0.108521,-0.440283 0.111621,-0.201538 0.288354,-0.322461 0.179834,-0.120923 0.403077,-0.182934 0.164331,-0.04341 0.496093,-0.08372 0.675928,-0.08061 0.995288,-0.192236 0.0031,-0.114722 0.0031,-0.145728 0,-0.341064 -0.15813,-0.480591 -0.21394,-0.189135 -0.63562,-0.189135 -0.393774,0 -0.58291,0.139526 -0.186035,0.136426 -0.275952,0.486792 l -0.545703,-0.07441 q 0.07441,-0.350366 0.244946,-0.564307 0.170532,-0.217041 0.492993,-0.331762 0.322461,-0.117823 0.747241,-0.117823 0.42168,0 0.68523,0.09922 0.263549,0.09922 0.387573,0.251147 0.124023,0.148829 0.173633,0.378272 0.0279,0.142627 0.0279,0.514697 v 0.744141 q 0,0.778247 0.03411,0.985986 0.03721,0.204639 0.142627,0.393775 h -0.58291 Q 85.062501,94.679495 85.0377,94.446951 Z m -0.04651,-1.246436 q -0.303857,0.124024 -0.911572,0.21084 -0.344165,0.04961 -0.486792,0.111621 -0.142627,0.06201 -0.220141,0.182935 -0.07751,0.117822 -0.07751,0.26355 0,0.223242 0.167432,0.37207 0.170532,0.148828 0.496093,0.148828 0.322461,0 0.573609,-0.139526 0.251147,-0.142627 0.368969,-0.387574 0.08992,-0.189135 0.08992,-0.558105 z"
           style="fill:#00a500;fill-opacity:1" /></g><g
         aria-label="Edna Gonzales"
         id="g5972"
         style="font-size:7.76111px;line-height:0px;font-family:Arial;-inkscape-font-specification:Arial;opacity:1;fill:#05a705;fill-opacity:1;stroke-width:1.32292;stroke-linecap:round;stroke-linejoin:round;stroke-miterlimit:10.5;paint-order:markers fill stroke"
         inkscape:path-effect="#path-effect5984"
         class="UnoptimicedTransforms"
         transform="translate(113.74991,0.74835438)"><path
           d="m 40.689628,43.368381 -3.978831,-3.877614 c 1.10948,-1.136014 2.296978,-2.18935 3.549754,-3.154648 l 0.399854,0.519146 c -1.003861,0.773433 -1.964688,1.604347 -2.875536,2.489823 l 1.186458,1.219087 c 0.807891,-0.786083 1.658392,-1.527226 2.545796,-2.22103 l 0.401254,0.513251 c -0.869186,0.679501 -1.701938,1.405228 -2.49255,2.17478 l 1.318581,1.354843 c 0.821741,-0.800779 1.693704,-1.551568 2.608091,-2.249089 l 0.397537,0.52093 c -1.08663,0.828802 -2.111435,1.734273 -3.060408,2.710521 z"
           id="path5948"
           inkscape:original-d="m 39.150285,41.510513 v -5.55556 h 4.016981 v 0.655602 h -3.281798 v 1.701532 h 3.07337 v 0.651812 h -3.07337 v 1.891013 h 3.410644 v 0.655601 z"
           style="fill:#05a705;fill-opacity:1" /><path
           d="m 46.659639,38.706409 -0.257154,-0.437877 c -0.01989,0.474963 -0.233791,0.834372 -0.645197,1.097321 -0.267022,0.170665 -0.558022,0.25784 -0.880233,0.263691 -0.319769,0.0044 -0.632864,-0.07605 -0.94022,-0.244282 -0.306443,-0.171632 -0.583761,-0.421679 -0.825567,-0.754495 -0.23611,-0.324977 -0.392305,-0.66076 -0.462703,-1.011407 -0.07181,-0.352387 -0.03455,-0.687243 0.114767,-1.000876 0.149304,-0.313609 0.383495,-0.574851 0.698605,-0.776973 0.230878,-0.148093 0.466105,-0.233444 0.702032,-0.256199 0.234697,-0.02492 0.45107,6.49e-4 0.648173,0.07507 l -1.012057,-1.71727 c 0.229688,-0.135456 0.460909,-0.268264 0.693603,-0.398397 l 2.710682,4.849796 c -0.182706,0.102049 -0.3643,0.206024 -0.544731,0.311902 z m -2.942645,-0.504598 c 0.292412,0.423525 0.605777,0.676227 0.930991,0.763697 0.326364,0.08778 0.610837,0.05275 0.861799,-0.106915 0.253098,-0.161019 0.405694,-0.396491 0.461839,-0.713228 0.05685,-0.319128 -0.03703,-0.696924 -0.289929,-1.127928 -0.278992,-0.475481 -0.580652,-0.766287 -0.914339,-0.867313 -0.332496,-0.100666 -0.648958,-0.05794 -0.940368,0.128047 -0.284293,0.18145 -0.452131,0.441524 -0.499972,0.772436 -0.0457,0.33053 0.08691,0.712242 0.389979,1.151204 z"
           id="path5950"
           inkscape:original-d="m 46.835603,41.510513 v -0.507807 q -0.38275,0.598758 -1.125513,0.598758 -0.481279,0 -0.886767,-0.265272 -0.401698,-0.265273 -0.625285,-0.738973 -0.219797,-0.477491 -0.219797,-1.095196 0,-0.602547 0.200849,-1.091406 0.200849,-0.492649 0.602547,-0.754131 0.401698,-0.261483 0.898137,-0.261483 0.363802,0 0.648022,0.155374 0.28422,0.151584 0.462332,0.397908 v -1.993332 h 0.678339 v 5.55556 z m -2.156285,-2.00849 q 0,0.773079 0.325906,1.155829 0.325906,0.38275 0.76929,0.38275 0.447173,0 0.757921,-0.363802 0.314537,-0.367591 0.314537,-1.117933 0,-0.826134 -0.318327,-1.212673 -0.318327,-0.38654 -0.784448,-0.38654 -0.454753,0 -0.761711,0.371381 -0.303168,0.371381 -0.303168,1.170988 z"
           style="fill:#05a705;fill-opacity:1" /><path
           d="m 48.142556,37.892386 -1.835969,-3.582074 c 0.205323,-0.105253 0.411729,-0.208387 0.619172,-0.309383 l 0.250517,0.514593 c 0.100885,-0.54042 0.444872,-0.949936 1.02478,-1.20207 0.251457,-0.109329 0.500796,-0.165881 0.744894,-0.170067 0.245815,-0.0076 0.447253,0.03539 0.603578,0.126147 0.156469,0.09084 0.289744,0.219606 0.400722,0.385476 0.0712,0.108308 0.162497,0.309523 0.275076,0.604876 l 0.881414,2.312418 c -0.210853,0.08046 -0.420812,0.16332 -0.629812,0.248558 l -0.924019,-2.267305 c -0.104969,-0.257568 -0.209504,-0.438289 -0.315262,-0.542597 -0.106531,-0.106461 -0.245018,-0.168348 -0.415586,-0.184194 -0.168885,-0.01925 -0.346823,0.01158 -0.531731,0.09304 -0.295432,0.130155 -0.511422,0.331209 -0.644245,0.597644 -0.130821,0.266297 -0.07996,0.629997 0.144776,1.094323 l 0.957733,1.978776 c -0.203165,0.09832 -0.405198,0.19894 -0.606038,0.301838 z"
           id="path5952"
           inkscape:original-d="m 48.540925,41.510513 v -4.02456 h 0.613916 v 0.572231 q 0.443384,-0.663181 1.280886,-0.663181 0.363802,0 0.666971,0.132636 0.306957,0.128847 0.458542,0.341064 0.151584,0.212218 0.212218,0.504018 0.0379,0.18948 0.0379,0.663181 v 2.474611 h -0.682129 v -2.448084 q 0,-0.416857 -0.07958,-0.621495 -0.07958,-0.208429 -0.28422,-0.329696 -0.200849,-0.125057 -0.473701,-0.125057 -0.435804,0 -0.754131,0.276641 -0.314537,0.276641 -0.314537,1.049721 v 2.19797 z"
           style="fill:#05a705;fill-opacity:1" /><path
           d="m 54.47712,34.985857 c -0.1959,0.271342 -0.393052,0.480787 -0.596106,0.62908 -0.200572,0.147581 -0.427381,0.259189 -0.682637,0.336781 -0.4212,0.128034 -0.774009,0.132531 -1.069066,0.0059 -0.29553,-0.128926 -0.501681,-0.348779 -0.612966,-0.6657 -0.06527,-0.185879 -0.08167,-0.370227 -0.04704,-0.553394 0.03629,-0.186365 0.1111,-0.350849 0.224737,-0.492708 0.116136,-0.142657 0.259322,-0.267921 0.429132,-0.374744 0.124899,-0.0765 0.322159,-0.174363 0.58961,-0.287809 0.549463,-0.231746 0.945055,-0.414884 1.196869,-0.574411 -0.0206,-0.09121 -0.03399,-0.148875 -0.04029,-0.173389 -0.06907,-0.269027 -0.185518,-0.441037 -0.351842,-0.514946 -0.224463,-0.1 -0.522554,-0.100229 -0.888475,0.0052 -0.341636,0.09844 -0.57708,0.23044 -0.705558,0.38951 -0.126707,0.156002 -0.18384,0.382351 -0.17163,0.678335 -0.238824,0.04544 -0.477503,0.09347 -0.715998,0.144136 -0.03122,-0.291332 -0.0022,-0.544217 0.08847,-0.758647 0.08977,-0.21655 0.260639,-0.415652 0.513679,-0.59338 0.252225,-0.180097 0.566854,-0.325874 0.941403,-0.432577 0.371641,-0.105874 0.686486,-0.147438 0.939395,-0.129366 0.253202,0.01809 0.449116,0.07545 0.58735,0.169057 0.137805,0.09126 0.249438,0.222994 0.335594,0.394627 0.05109,0.107476 0.110959,0.308216 0.180367,0.603325 l 0.208077,0.884703 c 0.144881,0.616003 0.251275,1.005097 0.317,1.16257 0.06799,0.155233 0.161625,0.298014 0.279989,0.429003 -0.232398,0.05294 -0.464064,0.108282 -0.694942,0.16606 -0.103099,-0.119849 -0.188444,-0.26885 -0.255124,-0.447174 z m -0.434651,-1.459959 c -0.231117,0.164295 -0.585746,0.34515 -1.068088,0.560457 -0.271671,0.121655 -0.458195,0.227659 -0.558988,0.311925 -0.10126,0.08465 -0.167982,0.184263 -0.200395,0.29818 -0.03319,0.111521 -0.03096,0.223709 0.0058,0.336539 0.05628,0.172868 0.169937,0.294964 0.338859,0.368153 0.171631,0.07252 0.384324,0.0689 0.641751,-0.0079 0.255011,-0.07607 0.46683,-0.195132 0.63787,-0.359962 0.170264,-0.167157 0.279074,-0.358804 0.324909,-0.576801 0.03447,-0.167821 0.01516,-0.397815 -0.05952,-0.688553 -0.02072,-0.08068 -0.04145,-0.161363 -0.06217,-0.242044 z"
           id="path5954"
           inkscape:original-d="m 55.48348,41.014075 q -0.37896,0.322117 -0.731393,0.454753 -0.348644,0.132636 -0.750342,0.132636 -0.663181,0 -1.019404,-0.322117 -0.356222,-0.325906 -0.356222,-0.829923 0,-0.295589 0.132636,-0.538124 0.136426,-0.246324 0.352433,-0.394119 0.219797,-0.147794 0.492649,-0.223586 0.200849,-0.05306 0.606336,-0.10232 0.826134,-0.09853 1.216463,-0.234955 0.0038,-0.140215 0.0038,-0.178111 0,-0.416857 -0.19327,-0.587389 -0.261483,-0.231166 -0.776869,-0.231166 -0.48128,0 -0.712446,0.170532 -0.227376,0.166743 -0.337274,0.594968 l -0.666971,-0.09095 q 0.09095,-0.428226 0.299379,-0.689708 0.208428,-0.265273 0.602547,-0.405488 0.394119,-0.144005 0.913295,-0.144005 0.515386,0 0.837502,0.121267 0.322117,0.121268 0.473701,0.306958 0.151584,0.181901 0.212218,0.462332 0.03411,0.174322 0.03411,0.629074 v 0.909505 q 0,0.951191 0.04169,1.205095 0.04548,0.250113 0.174322,0.481279 H 55.619906 Q 55.513797,41.298295 55.48348,41.014075 Z m -0.05684,-1.523421 q -0.371381,0.151584 -1.114143,0.257693 -0.420647,0.06063 -0.594968,0.136426 -0.174322,0.07579 -0.269062,0.223587 -0.09474,0.144005 -0.09474,0.322116 0,0.272852 0.204638,0.454753 0.208429,0.181901 0.606337,0.181901 0.394119,0 0.701077,-0.170533 0.306958,-0.174321 0.450963,-0.4737 0.109898,-0.231166 0.109898,-0.682129 z"
           style="fill:#05a705;fill-opacity:1" /><path
           d="m 60.950534,32.267643 -0.04479,-0.650816 c 0.851199,-0.05986 1.704239,-0.09389 2.557057,-0.103201 l 0.01951,2.062067 c -0.371717,0.292003 -0.747994,0.518291 -1.133702,0.679639 -0.38589,0.158858 -0.779901,0.251402 -1.188236,0.27894 -0.551183,0.03717 -1.059231,-0.03378 -1.537235,-0.217002 -0.475031,-0.185744 -0.859958,-0.478202 -1.154225,-0.88501 -0.293984,-0.406417 -0.486117,-0.878156 -0.563698,-1.418223 -0.0769,-0.535305 -0.02756,-1.052337 0.161196,-1.549547 0.191236,-0.500094 0.518468,-0.894259 0.980894,-1.173104 0.462343,-0.278794 1.019521,-0.445239 1.660299,-0.489426 0.465106,-0.03207 0.889309,0.01192 1.267442,0.128105 0.381063,0.113572 0.679199,0.286931 0.894231,0.514861 0.215278,0.228192 0.377964,0.529192 0.489441,0.902132 -0.246001,0.06336 -0.491068,0.12877 -0.735137,0.196218 -0.100629,-0.28052 -0.223774,-0.499259 -0.369327,-0.656088 -0.145427,-0.156695 -0.351295,-0.277969 -0.617707,-0.361131 -0.266491,-0.08567 -0.56117,-0.11833 -0.881326,-0.09629 -0.383582,0.02641 -0.711353,0.105937 -0.980377,0.234764 -0.26928,0.12632 -0.480205,0.282931 -0.632795,0.467167 -0.149806,0.183998 -0.258784,0.381024 -0.328047,0.590204 -0.117034,0.360047 -0.148001,0.739449 -0.09904,1.13843 0.0603,0.49134 0.201863,0.892276 0.417021,1.202777 0.218128,0.310667 0.502403,0.528465 0.853143,0.657398 0.351037,0.129043 0.711538,0.180217 1.087764,0.154443 0.326938,-0.0224 0.642381,-0.100863 0.950468,-0.236219 0.30816,-0.137966 0.542691,-0.276475 0.702796,-0.420209 l -0.02826,-1.034792 c -0.582981,0.01603 -1.165663,0.04388 -1.747358,0.08391 z"
           id="path5956"
           inkscape:original-d="m 62.016759,39.331491 v -0.651812 l 2.353344,-0.0038 v 2.061545 q -0.541913,0.432015 -1.117933,0.651812 -0.57602,0.216007 -1.182357,0.216007 -0.818554,0 -1.489314,-0.348643 -0.666971,-0.352433 -1.008035,-1.015614 -0.341064,-0.663181 -0.341064,-1.481735 0,-0.810976 0.337274,-1.512053 0.341065,-0.704866 0.977718,-1.04593 0.636654,-0.341065 1.466577,-0.341065 0.602547,0 1.087617,0.19706 0.488859,0.193269 0.7655,0.541913 0.276641,0.348644 0.420646,0.909505 l -0.663181,0.181901 q -0.125057,-0.424436 -0.310747,-0.66697 -0.185691,-0.242535 -0.530545,-0.38654 -0.344854,-0.147795 -0.7655,-0.147795 -0.504018,0 -0.871609,0.155374 -0.367592,0.151584 -0.594968,0.401698 -0.223587,0.250114 -0.348644,0.549493 -0.212218,0.515386 -0.212218,1.117933 0,0.742763 0.253904,1.24299 0.257693,0.500228 0.746552,0.742763 0.488859,0.242535 1.038352,0.242535 0.47749,0 0.932242,-0.181901 0.454753,-0.185691 0.689708,-0.394119 v -1.034562 z"
           style="fill:#05a705;fill-opacity:1" /><path
           d="m 64.263238,32.335549 c 0.0063,-0.745467 0.23351,-1.295818 0.700926,-1.644893 0.38912,-0.289059 0.86618,-0.422755 1.420528,-0.394111 0.616381,0.03185 1.108112,0.250542 1.463945,0.644146 0.356958,0.3921 0.497962,0.907435 0.438415,1.543278 -0.0482,0.514674 -0.169318,0.913414 -0.357719,1.195214 -0.185887,0.28001 -0.437428,0.489022 -0.75444,0.630416 -0.314467,0.141599 -0.648113,0.202545 -1.005812,0.184425 -0.573513,-0.02905 -1.030615,-0.222029 -1.383227,-0.590271 -0.348852,-0.36698 -0.528317,-0.889144 -0.522616,-1.568204 z m 0.748423,0.01205 c -0.01258,0.514687 0.09746,0.90424 0.322702,1.168451 0.225859,0.26232 0.511907,0.400448 0.863466,0.418308 0.34895,0.01773 0.646531,-0.09207 0.898283,-0.332552 0.25115,-0.239905 0.400881,-0.622348 0.441857,-1.14788 0.03867,-0.495898 -0.05361,-0.880068 -0.284069,-1.152298 -0.227057,-0.273996 -0.528158,-0.422568 -0.89815,-0.441639 -0.375562,-0.01936 -0.693151,0.09619 -0.947089,0.343106 -0.254512,0.247473 -0.384407,0.629204 -0.397,1.144504 z"
           id="path5958"
           inkscape:original-d="m 65.112864,39.498233 q 0,-1.117933 0.621495,-1.656057 0.519176,-0.447173 1.265728,-0.447173 0.829924,0 1.356679,0.545703 0.526755,0.541913 0.526755,1.500683 0,0.776869 -0.234956,1.224043 -0.231166,0.443383 -0.678339,0.689708 -0.443384,0.246324 -0.970139,0.246324 -0.845081,0 -1.368047,-0.541914 -0.519176,-0.541913 -0.519176,-1.561317 z m 0.701077,0 q 0,0.77308 0.337275,1.159619 0.337275,0.38275 0.848871,0.38275 0.507807,0 0.845082,-0.386539 0.337275,-0.38654 0.337275,-1.178567 0,-0.746552 -0.341065,-1.129302 -0.337274,-0.38654 -0.841292,-0.38654 -0.511596,0 -0.848871,0.38275 -0.337275,0.38275 -0.337275,1.155829 z"
           style="fill:#05a705;fill-opacity:1" /><path
           d="m 68.908161,34.625228 0.44532,-3.995317 c 0.226082,0.0252 0.45198,0.05191 0.677677,0.08012 l -0.07095,0.567183 c 0.376909,-0.397642 0.879519,-0.555084 1.494663,-0.460811 0.266907,0.04091 0.504469,0.124129 0.711126,0.248415 0.209867,0.122277 0.35698,0.263626 0.441893,0.422295 0.08496,0.158762 0.131293,0.337807 0.139753,0.536989 0.0044,0.129308 -0.02198,0.348703 -0.07904,0.659244 l -0.446898,2.432074 c -0.229326,-0.04227 -0.458906,-0.08285 -0.688716,-0.121735 l 0.406939,-2.411885 c 0.04622,-0.273923 0.05237,-0.482548 0.0177,-0.62667 -0.03421,-0.14645 -0.118586,-0.271808 -0.253682,-0.37533 -0.131911,-0.105538 -0.297332,-0.173669 -0.495316,-0.203397 -0.316288,-0.04749 -0.603709,0.0055 -0.858306,0.157366 -0.25251,0.152606 -0.408406,0.484874 -0.473099,0.99587 l -0.275761,2.178181 c -0.230937,-0.02928 -0.462044,-0.05681 -0.693301,-0.0826 z"
           id="path5960"
           inkscape:original-d="m 69.683128,41.510513 v -4.02456 h 0.613916 v 0.572231 q 0.443384,-0.663181 1.280886,-0.663181 0.363802,0 0.666971,0.132636 0.306958,0.128847 0.458542,0.341064 0.151584,0.212218 0.212218,0.504018 0.0379,0.18948 0.0379,0.663181 v 2.474611 h -0.682129 v -2.448084 q 0,-0.416857 -0.07958,-0.621495 -0.07958,-0.208429 -0.28422,-0.329696 -0.200849,-0.125057 -0.4737,-0.125057 -0.435805,0 -0.754132,0.276641 -0.314537,0.276641 -0.314537,1.049721 v 2.19797 z"
           style="fill:#05a705;fill-opacity:1" /><path
           d="m 72.912711,35.248026 0.107846,-0.542337 c 1.060151,-0.7876 2.168511,-1.541604 3.321499,-2.259141 -0.314148,-0.06447 -0.58864,-0.123779 -0.827112,-0.180573 -0.585184,-0.139367 -1.172679,-0.268703 -1.762185,-0.387808 l 0.109589,-0.542008 c 1.194331,0.241167 2.380332,0.523824 3.555574,0.846351 l -0.119507,0.43497 c -0.997626,0.609253 -1.962901,1.245526 -2.89359,1.907005 -0.177679,0.118935 -0.354146,0.238794 -0.529386,0.359563 0.314899,0.04536 0.608195,0.100765 0.87903,0.164925 0.627418,0.148634 1.252305,0.309552 1.87422,0.482461 L 76.47161,36.097618 C 75.294858,35.770255 74.107531,35.48637 72.912711,35.248026 Z"
           id="path5962"
           inkscape:original-d="m 73.639476,41.510513 v -0.553282 l 2.561773,-2.940733 q -0.435805,0.02274 -0.76929,0.02274 h -1.640898 v -0.553283 h 3.289376 v 0.450963 l -2.179022,2.554194 -0.420646,0.466121 q 0.458542,-0.03411 0.86024,-0.03411 h 1.860695 v 0.587388 z"
           style="fill:#05a705;fill-opacity:1" /><path
           d="m 79.881444,36.650389 c -0.319312,0.115582 -0.606422,0.177478 -0.86426,0.184352 -0.255325,0.0077 -0.513143,-0.03037 -0.775442,-0.113965 -0.432905,-0.137976 -0.735367,-0.340923 -0.910101,-0.61687 -0.173888,-0.278163 -0.217043,-0.578124 -0.124205,-0.901204 0.05445,-0.189483 0.14868,-0.349115 0.283974,-0.478297 0.138548,-0.130833 0.295807,-0.22173 0.471671,-0.272163 0.178413,-0.04965 0.36879,-0.06996 0.57051,-0.0605 0.147408,0.0087 0.366228,0.04088 0.652896,0.09893 0.586497,0.120017 1.021924,0.188671 1.319707,0.195827 0.03352,-0.08746 0.05443,-0.143014 0.0628,-0.166926 0.09195,-0.26263 0.09054,-0.470743 -0.006,-0.624672 -0.130319,-0.208146 -0.375954,-0.373948 -0.735815,-0.49202 -0.335992,-0.110241 -0.603125,-0.134624 -0.798646,-0.07648 -0.192255,0.0566 -0.368168,0.21019 -0.527618,0.460279 -0.222177,-0.09943 -0.445212,-0.197406 -0.669087,-0.293896 0.142934,-0.256003 0.312271,-0.446164 0.508813,-0.569917 0.197093,-0.126071 0.449289,-0.191889 0.755754,-0.194894 0.307098,-0.0054 0.645296,0.05141 1.011272,0.172256 0.363212,0.119931 0.644618,0.259595 0.843047,0.414519 0.198579,0.155042 0.328955,0.310653 0.392009,0.465001 0.06396,0.152092 0.08437,0.323683 0.06182,0.514722 -0.0165,0.117994 -0.0769,0.319134 -0.181189,0.604341 l -0.31272,0.855209 c -0.21784,0.595734 -0.342543,0.979573 -0.373619,1.148084 -0.02784,0.167616 -0.02665,0.339163 0.0028,0.51465 -0.229579,-0.08519 -0.459726,-0.168737 -0.690414,-0.250625 -0.0214,-0.157843 -0.01088,-0.329831 0.03214,-0.515739 -7e-6,-3e-6 -1.3e-5,-5e-6 -1.9e-5,-7e-6 z m 0.448032,-1.459014 c -0.284935,0.0078 -0.685638,-0.04042 -1.210451,-0.136493 -0.296375,-0.05389 -0.512205,-0.07357 -0.644754,-0.06211 -0.132969,0.01149 -0.245877,0.05483 -0.338596,0.129555 -0.09199,0.07231 -0.154992,0.165487 -0.189501,0.279178 -0.05287,0.174181 -0.02833,0.340059 0.07177,0.497892 0.102714,0.158763 0.284793,0.278921 0.547079,0.363435 0.25981,0.08372 0.507797,0.106122 0.746377,0.0666 0.239286,-0.0419 0.439505,-0.139823 0.600544,-0.295353 0.12335,-0.120256 0.235428,-0.322452 0.334813,-0.606384 z"
           id="path5964"
           inkscape:original-d="m 80.506239,41.014075 q -0.378961,0.322117 -0.731394,0.454753 -0.348643,0.132636 -0.750342,0.132636 -0.66318,0 -1.019403,-0.322117 -0.356223,-0.325906 -0.356223,-0.829923 0,-0.295589 0.132636,-0.538124 0.136426,-0.246324 0.352433,-0.394119 0.219797,-0.147794 0.492649,-0.223586 0.200849,-0.05306 0.606337,-0.10232 0.826133,-0.09853 1.216463,-0.234955 0.0038,-0.140215 0.0038,-0.178111 0,-0.416857 -0.193269,-0.587389 -0.261483,-0.231166 -0.776869,-0.231166 -0.48128,0 -0.712446,0.170532 -0.227376,0.166743 -0.337275,0.594968 l -0.66697,-0.09095 q 0.09095,-0.428226 0.299379,-0.689708 0.208428,-0.265273 0.602547,-0.405488 0.394119,-0.144005 0.913294,-0.144005 0.515387,0 0.837503,0.121267 0.322116,0.121268 0.4737,0.306958 0.151585,0.181901 0.212218,0.462332 0.03411,0.174322 0.03411,0.629074 v 0.909505 q 0,0.951191 0.04169,1.205095 0.04548,0.250113 0.174322,0.481279 h -0.712445 q -0.106109,-0.212218 -0.136426,-0.496438 z m -0.05684,-1.523421 q -0.371381,0.151584 -1.114144,0.257693 -0.420646,0.06063 -0.594968,0.136426 -0.174322,0.07579 -0.269062,0.223587 -0.09474,0.144005 -0.09474,0.322116 0,0.272852 0.204639,0.454753 0.208428,0.181901 0.606336,0.181901 0.394119,0 0.701077,-0.170533 0.306958,-0.174321 0.450963,-0.4737 0.109899,-0.231166 0.109899,-0.682129 z"
           style="fill:#05a705;fill-opacity:1" /><path
           d="m 81.336035,37.719709 2.018927,-5.183765 c 0.242077,0.0942 0.4835,0.190045 0.724246,0.28753 l -2.089272,5.156263 c -0.217406,-0.08816 -0.435381,-0.174836 -0.653901,-0.260028 z"
           id="path5966"
           inkscape:original-d="m 82.181245,41.510513 v -5.55556 h 0.682129 v 5.55556 z"
           style="fill:#05a705;fill-opacity:1" /><path
           d="m 86.154492,38.430566 c 0.209816,0.136407 0.41851,0.274163 0.626066,0.413241 -0.292604,0.313272 -0.629787,0.500507 -1.010169,0.565396 -0.380911,0.06498 -0.785298,-0.0063 -1.221219,-0.21102 -0.548803,-0.257747 -0.913403,-0.617592 -1.098998,-1.093688 -0.181671,-0.476051 -0.15109,-1.017183 0.104831,-1.620085 0.265047,-0.624401 0.643308,-1.035565 1.146465,-1.225288 0.501918,-0.189254 1.040279,-0.154633 1.60096,0.108342 0.542825,0.2546 0.902789,0.636428 1.074599,1.13263 0.17222,0.497379 0.09979,1.040303 -0.204198,1.632328 -0.0185,0.03602 -0.04742,0.08937 -0.0868,0.160167 -0.951045,-0.488059 -1.916558,-0.948401 -2.894694,-1.379794 -0.153911,0.41587 -0.169411,0.779825 -0.05111,1.090721 0.118492,0.311386 0.334692,0.539198 0.651371,0.687969 0.235782,0.110766 0.464375,0.147556 0.688229,0.109906 0.223687,-0.03762 0.448439,-0.161104 0.674661,-0.37083 3e-6,2e-6 6e-6,3e-6 9e-6,5e-6 z M 84.45543,36.41538 c 0.739724,0.326899 1.472239,0.670197 2.196771,1.029376 0.121304,-0.318363 0.150428,-0.587491 0.08581,-0.808038 -0.09788,-0.340803 -0.320895,-0.595006 -0.666501,-0.757156 -0.312755,-0.146737 -0.621839,-0.172274 -0.922667,-0.07745 -0.298613,0.09606 -0.528786,0.301473 -0.693413,0.613266 z"
           id="path5968"
           inkscape:original-d="m 86.675716,40.214469 0.704866,0.08716 q -0.166742,0.617706 -0.617705,0.95877 -0.450963,0.341065 -1.15204,0.341065 -0.882978,0 -1.402154,-0.541914 -0.515386,-0.545703 -0.515386,-1.52721 0,-1.015614 0.522965,-1.576476 0.522966,-0.560861 1.356679,-0.560861 0.807186,0 1.318782,0.549493 0.511597,0.549492 0.511597,1.546158 0,0.06063 -0.0038,0.181901 h -3.001367 q 0.0379,0.663181 0.375171,1.015614 0.337275,0.352433 0.841292,0.352433 0.375171,0 0.640444,-0.197059 0.265272,-0.197059 0.420646,-0.629074 z m -2.239657,-1.102775 h 2.247236 q -0.04547,-0.507807 -0.257693,-0.761711 -0.325906,-0.394119 -0.845082,-0.394119 -0.469911,0 -0.792027,0.314538 -0.318327,0.314537 -0.352434,0.841292 z"
           style="fill:#05a705;fill-opacity:1" /><path
           d="m 87.323906,39.134774 c 0.226565,0.07937 0.452803,0.160332 0.678689,0.242882 -0.09414,0.256784 -0.0965,0.491606 -0.0089,0.70439 0.08997,0.214321 0.275293,0.399616 0.556369,0.559823 0.283399,0.161531 0.523847,0.229015 0.724501,0.200403 0.201876,-0.03078 0.34728,-0.119091 0.435187,-0.266814 0.07882,-0.132453 0.08024,-0.272876 0.0028,-0.421223 -0.05415,-0.101729 -0.228488,-0.295117 -0.524959,-0.571947 -0.401672,-0.375613 -0.672611,-0.64589 -0.813577,-0.827402 -0.135951,-0.180599 -0.214323,-0.367498 -0.234328,-0.561686 -0.0164,-0.195113 0.02087,-0.379958 0.113286,-0.554255 0.08412,-0.158655 0.20072,-0.284405 0.350581,-0.376456 0.153503,-0.09297 0.32331,-0.146919 0.509217,-0.16121 0.140578,-0.01294 0.312464,0.0058 0.514956,0.05709 0.206196,0.05048 0.411213,0.133364 0.614006,0.248623 0.305394,0.173572 0.54878,0.367966 0.729439,0.580168 0.18312,0.21368 0.2871,0.420808 0.313395,0.619705 0.02761,0.196834 -0.0067,0.418411 -0.102251,0.66504 -0.222622,-0.100238 -0.445763,-0.198938 -0.669397,-0.296095 0.07719,-0.195145 0.07639,-0.383703 -0.0037,-0.565321 -0.07768,-0.180122 -0.24352,-0.344014 -0.497438,-0.488599 -0.299842,-0.170734 -0.540719,-0.244899 -0.719597,-0.225232 -0.178921,0.01967 -0.301389,0.09123 -0.368098,0.213227 -0.04247,0.07766 -0.05407,0.162087 -0.03519,0.253216 0.01767,0.09336 0.07124,0.192076 0.160355,0.29654 0.05513,0.06112 0.21153,0.211267 0.482155,0.471775 0.386948,0.368791 0.64583,0.648018 0.776334,0.822103 0.135455,0.175076 0.211587,0.360121 0.228979,0.554093 0.0174,0.194089 -0.03546,0.38984 -0.157056,0.587974 -0.118952,0.193824 -0.291392,0.33988 -0.515682,0.440151 -0.220794,0.09951 -0.470314,0.130363 -0.749382,0.0944 -0.277843,-0.03814 -0.556697,-0.137854 -0.839401,-0.298945 -0.468159,-0.266766 -0.776126,-0.55855 -0.924001,-0.885513 -0.145405,-0.32535 -0.155795,-0.695606 -0.02722,-1.110912 z"
           id="path5970"
           inkscape:original-d="m 87.964178,40.309209 0.67455,-0.106109 q 0.05684,0.405487 0.314537,0.621495 0.261483,0.216007 0.727604,0.216007 0.469911,0 0.697287,-0.18948 0.227377,-0.19327 0.227377,-0.450963 0,-0.231166 -0.200849,-0.363802 -0.140216,-0.09095 -0.697288,-0.231166 -0.750341,-0.18948 -1.042141,-0.325906 -0.28801,-0.140215 -0.439594,-0.38275 -0.147794,-0.246324 -0.147794,-0.541913 0,-0.269062 0.121267,-0.496438 0.125057,-0.231166 0.337275,-0.38275 0.159163,-0.117478 0.432015,-0.19706 0.276641,-0.08337 0.591178,-0.08337 0.4737,0 0.829923,0.136426 0.360013,0.136425 0.530545,0.371381 0.170532,0.231166 0.234955,0.621495 l -0.66697,0.09095 q -0.04547,-0.310748 -0.265272,-0.48507 -0.216008,-0.174322 -0.613916,-0.174322 -0.469911,0 -0.67076,0.155374 -0.200849,0.155374 -0.200849,0.363802 0,0.132636 0.08337,0.238745 0.08337,0.109899 0.261483,0.181901 0.102319,0.0379 0.602547,0.174322 0.723814,0.19327 1.008035,0.318327 0.28801,0.121267 0.450963,0.356223 0.162953,0.234955 0.162953,0.583599 0,0.341064 -0.20085,0.644232 -0.197059,0.299379 -0.57223,0.466122 -0.375171,0.162953 -0.848871,0.162953 -0.784448,0 -1.197515,-0.325906 -0.409277,-0.325906 -0.522965,-0.966349 z"
           style="fill:#05a705;fill-opacity:1" /></g><path
         style="opacity:1;fill:url(#linearGradient6307);fill-opacity:1;stroke-width:1.32292;stroke-linecap:round;stroke-linejoin:round;stroke-miterlimit:10.5;paint-order:markers fill stroke"
         d="m 208.0408,38.947572 c 3.50005,3.545409 6.38766,8.250891 7.76846,11.712169 l 1.03897,0.0568 c -3.13786,-9.05654 -11.88213,-17.532016 -16.57957,-20.202562 -6.3714,-4.7516 -13.17922,-5.377713 -18.52083,-6.151563 -8.79879,-0.571083 -14.12139,2.008137 -18.71927,3.373438 6.27857,-1.774728 11.22802,-2.992235 17.72708,-2.778125 4.30282,0.376905 8.75085,0.891491 12.23698,2.84427 -14.96886,-6.018685 -30.04129,-1.656525 -41.93646,8.666766 l -1.85209,1.552766 c 1.62839,-1.920156 3.63365,-3.614191 5.55625,-5.357813 -6.92083,4.371079 -10.22289,10.023807 -12.96458,15.875 l -1.25677,3.671094 1.12565,-0.226322 c -0.0283,-2.346075 7.09812,-14.928448 15.1793,-19.253626 -0.59381,0.455895 -1.17718,0.874337 -1.69629,1.323277 -7.4517,6.668612 -9.96207,9.772893 -12.95501,17.329848 -0.11536,1.738934 0.33939,0.46447 0.62838,0.06615 l 0.71107,-1.686719 -0.67208,2.748536 0.49893,-0.412438 c 3.27998,-8.370894 6.00448,-12.41862 11.8975,-17.119692 4.52361,-2.6197 7.63651,-5.723072 14.98203,-7.37526 3.62597,-0.644817 7.08753,-1.513831 11.64167,-0.892969 5.93983,0.459963 9.21146,2.139677 13.09687,3.538802 3.43657,1.115513 6.65001,4.016127 9.92188,6.449219 3.66239,3.574853 7.74215,9.617173 9.65729,14.304036 l 0.70373,-0.171039 c -1.07201,-4.818824 -5.08126,-9.224211 -7.21909,-11.884043 z"
         id="path5974"
         sodipodi:nodetypes="ccccccccccccccccccccccccccccc" /></g></g></svg>
